<?xml version="1.0" encoding="UTF-8"?> <!-- Generator: Adobe Illustrator 24.0.2, SVG Export Plug-In . SVG Version: 6.00 Build 0) --> <svg xmlns="http://www.w3.org/2000/svg" xmlns:xlink="http://www.w3.org/1999/xlink" id="Layer_1" x="0px" y="0px" viewBox="0 0 3096.5 625.1" style="enable-background:new 0 0 3096.5 625.1;" xml:space="preserve"> <style type="text/css"> .st0{fill:#FFFFFF;} .st1{fill:url(#SVGID_1_);} .st2{fill:url(#SVGID_2_);} .st3{fill:url(#SVGID_3_);} .st4{fill:url(#SVGID_4_);} .st5{fill:url(#SVGID_5_);} .st6{fill:url(#SVGID_6_);} .st7{fill:url(#SVGID_7_);} .st8{fill:url(#SVGID_8_);} .st9{fill:url(#SVGID_9_);} </style> <g> <path class="st0" d="M566.6,111.1c12.9-5.7,25.7-3.7,38.4,5.9c3,2.1,6.2,1.4,9.6-2.1L676.3,54c4.3-3.9,4.6-7.1,1-9.6 c-20.6-17.4-44.7-26.1-72.5-26.1c-18.8,0-37.9,4.3-57.3,12.8c-24.6,10.7-46,27-64.3,49.1c-11.4,13.9-20.4,29.2-27.6,45.4 c-4.2,9.4-7.9,19.1-10.6,29.3l-16.3,60.8l-51.9,193.7h-115L245.6,470c-2.7,10.2-6.4,19.9-10.6,29.3h117.7l-27.4,100.3 c-1.2,4.6,0.5,6.9,5.1,6.9h76.3c4.6,0,7.6-2.3,8.8-6.9l27-100.8h73.1c4.6,0,7.6-2.3,8.8-6.9l20.3-75.8c1.2-4.6-0.5-6.9-5.1-6.9 h-73.1l68.2-254.5C540.7,132.4,551.3,117.8,566.6,111.1z"></path> <linearGradient id="SVGID_1_" gradientUnits="userSpaceOnUse" x1="408.8256" y1="673.9381" x2="408.8256" y2="-133.5083" gradientTransform="matrix(1 0 0.2679 -1 -249.7972 628)"> <stop offset="0" style="stop-color:#EB7125"></stop> <stop offset="1" style="stop-color:#E0282A"></stop> </linearGradient> <path class="st1" d="M337.9,125.5l27.4-100.3c1.2-4.6-0.5-6.9-5.1-6.9H284c-4.6,0-7.6,2.3-8.8,6.9l-27,100.8h-73.1 c-4.6,0-7.6,2.3-8.8,6.9L146,208.7c-1.2,4.6,0.5,6.9,5.1,6.9h73.1L156,470c-6,22.4-16.6,37-32,43.7c-12.9,5.7-25.7,3.7-38.4-5.9 c-3-2.1-6.2-1.4-9.6,2.1l-61.6,60.8c-4.3,3.9-4.6,7.1-1,9.6c20.6,17.4,44.7,26.1,72.5,26.1c18.8,0,37.9-4.3,57.3-12.8 c24.6-10.7,46-27,64.3-49.1c11.4-13.9,20.4-29.2,27.6-45.4c4.2-9.4,7.9-19.1,10.6-29.3L262,409l51.9-193.7h115l16.3-60.8 c2.7-10.2,6.4-19.9,10.6-29.3H337.9V125.5z"></path> </g> <linearGradient id="SVGID_2_" gradientUnits="userSpaceOnUse" x1="818.9443" y1="332.805" x2="2363.5332" y2="104.6271" gradientTransform="matrix(1 0 0.2679 -1 -249.7972 628)"> <stop offset="0" style="stop-color:#EB7125"></stop> <stop offset="1" style="stop-color:#E0282A"></stop> </linearGradient> <path class="st2" d="M803.7,396.4c3.7,2.2,9,1.4,15.8-2.2c1.6-0.8,2.6-0.5,3.2,0.8l11,23c0.8,1.5,0.3,2.7-1.6,3.6 c-11.3,6.6-22.3,9.9-32.8,9.9c-7.2,0-13.5-1.6-19.1-4.9c-7.1-4-12-10.2-14.4-18.6c-2.3-8.4-2.1-17.8,0.7-28.3l25.8-96.4h-27.7 c-1.8,0-2.4-0.9-1.9-2.6l7.7-28.7c0.5-1.8,1.6-2.6,3.3-2.6h27.7l10-38.2c0.5-1.8,1.6-2.6,3.3-2.6h28.9c1.7,0,2.4,0.9,1.9,2.6 l-10.2,38.2H863c1.7,0,2.4,0.9,1.9,2.6l-7.7,28.7c-0.5,1.8-1.6,2.6-3.3,2.6h-27.7l-25.8,96.4C798.2,388.3,799.3,393.9,803.7,396.4z"></path> <linearGradient id="SVGID_3_" gradientUnits="userSpaceOnUse" x1="819.8953" y1="339.2414" x2="2364.4841" y2="111.0635" gradientTransform="matrix(1 0 0.2679 -1 -249.7972 628)"> <stop offset="0" style="stop-color:#EB7125"></stop> <stop offset="1" style="stop-color:#E0282A"></stop> </linearGradient> <path class="st3" d="M943.2,399.9h1h1c11.2-0.4,21.6-4.6,31.3-12.5c3.8-3,7.1-6.4,10-10.3c2.1-2.8,4-5.9,5.7-9.1 c0.7-1.5,1.2-2.7,1.6-3.6l0.8-2.2l1-3l29.3-108.6c0.5-1.8,1.6-2.6,3.3-2.6h29.3c1.7,0,2.4,0.9,1.9,2.6l-47.4,177 c-0.5,1.8-1.6,2.6-3.3,2.6h-29.3c-1.8,0-2.4-0.9-1.9-2.6l2.6-9.7c-4,2.4-7.9,4.4-11.5,6.1c-10.1,4.4-20.2,7-30.1,7.5 c-4.2,0.2-10.6,0.1-15.2-0.6c-5.1-0.7-9.8-2.4-14.2-4.2c-9.1-3.9-16.3-10-21.6-18.2c-5.4-8.2-8.2-17.5-8.7-27.9 c-0.1-5.1,0.4-10.4,1.4-15.8c0.5-2.3,1-4.7,1.5-7.3l0.8-3l0.8-2.8c1.6-5.9,3.6-13.5,6.1-22.8l1.5-5.5l1.2-5.3c1-3.8,1.9-7,2.6-9.7 c4.4-17,8.1-31.1,11.1-42.3l3.8-14.4c0.5-1.9,1.6-2.8,3.4-2.8h28.9c1.7,0,2.4,0.9,1.9,2.8l-4,14.4c-3,11.2-6.8,25.3-11.5,42.3 c-1.3,4.7-3.1,11.5-5.5,20.4l-1.7,5.5l-1.5,5.7c-1.2,4.3-2.2,8.2-3.1,11.7l-0.8,3l-0.8,2.8c-0.6,2.3-2,6.8-2,13.5 c0.1,5.8,1.5,11,4.3,15.6c2.9,4.6,6.9,8,11.8,10.3c2.5,1.1,5.2,1.9,7.8,2.4l1.2,0.2c0,0,0.8,0.1,1.6,0.3 C941.1,400,943.2,399.9,943.2,399.9z"></path> <linearGradient id="SVGID_4_" gradientUnits="userSpaceOnUse" x1="822.328" y1="355.7094" x2="2366.9167" y2="127.5315" gradientTransform="matrix(1 0 0.2679 -1 -249.7972 628)"> <stop offset="0" style="stop-color:#EB7125"></stop> <stop offset="1" style="stop-color:#E0282A"></stop> </linearGradient> <path class="st4" d="M1451.2,252.1c0.5-1.8,1.6-2.6,3.3-2.6h28.9c1.7,0,2.4,0.9,1.9,2.6l-47.5,177.1c-6.7,25.1-21.4,46.5-43.9,64.3 c-22.6,17.8-46.4,26.7-71.4,26.7c-15.8,0-29.6-3.8-41.4-11.5c-11.7-7.8-19.8-18.4-24.4-31.7c-0.5-1.5,0-2.7,1.8-3.6l28.9-14.4 c1.7-0.9,2.9-0.7,3.4,0.8c3.9,10.6,11.1,18.2,21.6,22.6c10.9,4.6,23.1,5,36.5,1.2c13-3.6,24.6-10.7,35-21.2 c10.1-10.4,16.8-22,20.2-34.8l4.4-16.6c-20.6,13.9-41.7,20.8-63.4,20.8c-12.8,0-24.4-2.6-34.7-7.7c-9.9-5-17.8-12-23.9-21 c-12.9-19.1-15-41.9-6.2-68.3c7.7-23,22.1-42.8,43.4-59.2c21.4-16.3,43.7-24.9,67.1-25.7c23.1-0.8,41.5,6.1,55.3,20.8L1451.2,252.1z M1354.4,397.6c15.6,0,30.5-5.5,44.7-16.6c14-11.2,23.2-24.6,27.4-40.2c4.2-15.6,2.2-29-5.8-40.2c-8.2-11.1-20.2-16.6-35.8-16.6 c-15.8,0-30.7,5.5-44.7,16.6c-14.2,11.2-23.4,24.6-27.6,40.2s-2.2,29.1,6,40.2C1326.7,392.1,1338.6,397.6,1354.4,397.6z"></path> <linearGradient id="SVGID_5_" gradientUnits="userSpaceOnUse" x1="831.8596" y1="420.2308" x2="2376.4485" y2="192.0529" gradientTransform="matrix(1 0 0.2679 -1 -249.7972 628)"> <stop offset="0" style="stop-color:#EB7125"></stop> <stop offset="1" style="stop-color:#E0282A"></stop> </linearGradient> <path class="st5" d="M1612.5,381c-0.7,2.5-2.4,6.9-3.4,9.2c-3.3,7.6-8.4,14.3-14.5,20.2c-5.8,5.7-12.4,10.1-19.7,13.3 c-5.7,2.6-11.9,4.6-18.6,6.1c-6.1,1.1-11.4,1.7-15.9,1.8c0,0-9.8,0-13.6-0.6c-3.9-0.6-8-1.4-12.2-2.6c-6.3-1.8-12-4.4-17.1-7.9 c-2.6-1.8-5-3.6-7.2-5.7c-1.5-1.3-2.8-2.8-3.9-4.2c-1-1.2-0.7-2.5,1-3.8l26.4-20c1.3-0.9,2.5-1,3.5-0.2c0.8,0.9,1.6,1.8,2.4,2.4 c1,0.8,1.8,1.5,2.5,2c3.2,2.7,16,10.5,36,6.1c3.6-0.8,6.6-1.8,9-2.8c5.1-2.4,8.8-6,11.2-10.7c0,0,4.7-8.5,1.4-14.6 c-2.4-4.2-8.3-9.2-17.2-13.9l-6.6-3.4l-3.2-1.6l-1.3-0.6l-1.6-0.8c-5.7-3-10.2-5.7-13.6-8.1c-5.6-3.9-9.8-8.2-12.8-12.7 c-0.4-0.5-0.8-1.3-1.2-2.2l-1-2.4c-0.8-1.9-1.4-3.6-1.7-5.1l-0.7-2.8c-0.1-1.1-0.2-2-0.3-2.8v-3V308c0,0,0.4-4,0.5-5.1l0.6-2.8 l0.1-0.4l0.4-1.4c0,0,1.9-5.9,2.7-7.9c0.5-1.2,1.3-3,2.6-5.3c4-7.5,9.4-13.9,16-19c5.7-4.7,12.2-8.4,19.5-10.9 c5.2-1.8,10.9-3.2,17-3.8c3.7-0.4,6.2-0.4,7.4-0.4c0.9,0,6,0,6.9,0c3.7,0.2,7.8,0.7,12.3,1.6c6.4,1.6,12.4,4.1,17.8,7.5 c2.1,1.2,4,2.6,5.6,4c1.5,1.1,4.7,4.5,5.4,5.5c1.2,1.2,0.9,2.5-0.8,3.8l-23.4,18c-1.4,1.1-2.5,1.1-3.5,0.2c-0.9-0.8-1.7-1.5-2.4-2.2 c-1.1-0.8-2-1.5-2.7-2c-3.3-1.9-6.8-3.3-10.6-4.2c-3-0.5-5.4-0.8-7.5-0.8h-4.4c-0.9,0-3.2,0.1-4.3,0.2c-3.5,0.4-6.6,1.2-9,2 c-2.6,1.1-4.7,2.3-6.4,3.6c-1.7,1.4-3.1,3.1-4.2,5.3l-0.4,0.8l-0.5,1l-0.7,2l-0.3,1l-0.3,1l-0.3,1.8v1.4l0.3,1.2l0.4,1.4l0.4,0.8 l0.4,0.8c1.3,2,3.5,4.1,6.6,6.3c2.6,1.8,24.1,12.7,24.1,12.7c5.6,2.8,10.1,5.7,13.7,8.5c5.5,4,9.7,8.5,12.4,13.3 c3.7,6.2,5.7,13.1,4.9,21C1614.6,371.4,1613.7,376.6,1612.5,381z"></path> <linearGradient id="SVGID_6_" gradientUnits="userSpaceOnUse" x1="838.1703" y1="462.9489" x2="2382.759" y2="234.771" gradientTransform="matrix(1 0 0.2679 -1 -249.7972 628)"> <stop offset="0" style="stop-color:#EB7125"></stop> <stop offset="1" style="stop-color:#E0282A"></stop> </linearGradient> <path class="st6" d="M1703.9,396.4c3.7,2.2,9,1.4,15.8-2.2c1.6-0.8,2.6-0.5,3.2,0.8l11,23c0.8,1.5,0.3,2.7-1.6,3.6 c-11.3,6.6-22.3,9.9-32.8,9.9c-7.2,0-13.5-1.6-19.1-4.9c-7.1-4-12-10.2-14.4-18.6c-2.3-8.4-2.1-17.8,0.7-28.3l25.8-96.4h-27.7 c-1.8,0-2.4-0.9-1.9-2.6l7.7-28.7c0.5-1.8,1.6-2.6,3.3-2.6h27.7l10-38.2c0.5-1.8,1.6-2.6,3.3-2.6h28.9c1.7,0,2.4,0.9,1.9,2.6 l-10.2,38.2h27.7c1.7,0,2.4,0.9,1.9,2.6l-7.7,28.7c-0.5,1.8-1.6,2.6-3.3,2.6h-27.7l-25.8,96.4 C1698.4,388.3,1699.4,393.9,1703.9,396.4z"></path> <linearGradient id="SVGID_7_" gradientUnits="userSpaceOnUse" x1="838.403" y1="464.5243" x2="2382.9919" y2="236.3464" gradientTransform="matrix(1 0 0.2679 -1 -249.7972 628)"> <stop offset="0" style="stop-color:#EB7125"></stop> <stop offset="1" style="stop-color:#E0282A"></stop> </linearGradient> <path class="st7" d="M1889.1,250c24.1,0.1,42.3,9,54.5,26.7c12.3,17.5,15.2,38.4,8.7,62.7l-3.1,11.5c-0.4,1.6-1.5,2.5-3.1,2.6 L1809.6,365c2,9.7,6.8,17.5,14.3,23.5c7.7,5.9,17.1,8.9,28.1,8.9c9.7,0,19.4-2.3,29.1-6.9c9.9-4.7,18.5-11.1,25.8-19.2 c1.3-1.5,2.6-1.8,3.9-1l21,14.6c1.4,0.8,1.4,2,0,3.6c-11.8,13.3-25.7,23.9-41.6,31.5c-15.8,7.7-31.6,11.5-47.4,11.5 c-24.9,0-43.9-8.9-56.9-26.7c-13.1-17.7-16.2-39-9.5-64.1c6.9-25.6,21.2-47.2,43-64.7C1841.2,258.6,1864.5,249.9,1889.1,250z M1920.9,322.2c0.1-11.6-3.5-20.8-11-27.7c-7.4-7-17.6-10.5-30.5-10.5c-13.6,0-26.5,4.4-38.8,13.3c-12.2,8.8-21.2,20.1-26.9,34 L1920.9,322.2z"></path> <g> <path class="st0" d="M2285.6,274.5c-1.9,0-2.6-0.9-2.1-2.8l3.6-13.3c0.5-1.9,1.7-2.8,3.6-2.8h68.1c1.9,0,2.6,0.9,2.1,2.8l-3.6,13.3 c-0.5,1.9-1.7,2.8-3.6,2.8H2285.6z M2264.4,431.6c-1.8,0-2.4-0.9-1.9-2.8l62.8-234.5c2.7-10.2,7.3-19.3,13.7-27.1 c6.4-7.9,14.1-13.9,23-17.8c8.3-3.6,16.4-5,24.5-4c8.1,0.8,15.3,3.8,21.6,9.1c1.3,1.1,1.2,2.4-0.5,4l-11,10.7 c-1.5,1.5-2.8,1.7-4,0.6c-8.1-6.5-17-7.6-26.8-3.4c-10.7,4.9-17.9,14.2-21.6,27.9l-62.8,234.5c-0.5,1.9-1.7,2.8-3.6,2.8H2264.4z"></path> <path class="st0" d="M2457.2,431.6c-1.6,0-2.3-0.8-2.2-2.4c1.4-9.7,2.9-18.8,4.5-27.3c-5.2,5.3-10.6,9.8-16.4,13.5 c-9.7,6.6-20.4,11.3-32,14c-11.2,2.4-22.4,2.7-33.6,0.8c-6.3-1.2-11.6-3.2-15.8-5.9c-5.1-3.2-8.9-7.5-11.3-12.7 c-4.1-9.3-3.9-21.1,0.8-35.4c2.3-6.6,5.6-12.6,9.9-18c4.1-5.4,9.3-10.1,15.5-14.2c8.9-5.9,19.6-10.4,32.1-13.3 c8.2-1.9,17.3-3.2,27.3-3.8c7.2-0.4,14.5-0.5,21.9-0.2c3,0,6,0.1,9,0.4c2,0,4.5,0.1,7.6,0.4l3,0.2c5.2-20.6,5.1-34.8-0.3-42.5 c-4.9-6.9-14.8-10.3-29.8-10.3c-11.1,0-21.7,2-31.9,5.9c-3.8,1.5-7.4,3.2-10.9,5.1c-1.3,0.7-2.5,1.4-3.8,2.2 c-1,0.7-1.9,1.3-2.7,1.8c-1.5,1.1-2.7,1.1-3.6,0l-7.7-9.1c-1.1-1.5-0.7-2.9,1.1-4.2c1.2-0.8,2.4-1.6,3.7-2.4 c1.6-1.1,3.3-2.2,5.1-3.2c4.5-2.6,9.1-4.9,14-6.9c13.6-5.5,27.6-8.3,41.8-8.3c20.3,0,34.3,5.4,42,16.2c5.7,8.2,7.8,19.6,6.2,34.2 c-0.6,5.7-1.8,12.2-3.6,19.6l-2.7,10.1l-2.6,9.7c-1.4,4.6-2.5,8.6-3.5,12.1c-2.9,10.7-5.6,23.2-8.3,37.6c-2,10.5-3.8,21.6-5.4,33.2 c-0.3,2.2-1.5,3.2-3.7,3.2h-13.7V431.6z M2453.9,385.1c4.2-5.1,8.1-11,11.6-17.6l2-3.8l1.4-6.1l1.8-5.9l1.6-5.9 c-1.5-0.1-2.8-0.3-4.1-0.4c-5.5-0.5-10.7-0.9-15.5-1c-7-0.1-13.8,0-20.5,0.4c-8.8,0.5-16.7,1.6-23.9,3.2c-9.8,2.3-17.8,5.5-24,9.7 c-7.4,5-12.4,11.5-15,19.6c-2.9,9.7-3,17.4-0.3,23c2.5,5.7,8.2,9.4,17,11.1c8.7,1.6,17.3,1.6,25.7-0.2c8.6-1.9,16.6-5.2,24.1-9.9 C2442.3,397.3,2448.3,391.8,2453.9,385.1z"></path> <path class="st0" d="M2661.7,256.5c19.7,2,34.9,10.3,45.7,24.9s14.6,31.9,11.5,52.2c-2,12.9-6.6,25.5-14,37.8 c-6.9,11.6-15.7,22-26.5,31.1c-10.7,9.2-22.2,16.2-34.6,21.2c-12.9,5.3-25.7,7.9-38.5,7.9c-13.6,0-25.7-3-36.2-9.1 c-10.3-5.8-18.2-13.9-23.6-24.3l-8.2,30.5c-0.5,1.9-1.7,2.8-3.6,2.8h-13.3c-1.9,0-2.6-0.9-2.1-2.8l76.1-284.1 c0.5-1.9,1.7-2.8,3.6-2.8h13.3c1.9,0,2.6,0.9,2.1,2.8l-38.7,144.6c12.3-11.6,25.9-20.3,41-26.1 C2631.2,257.1,2646.6,254.9,2661.7,256.5z M2610.3,412.6c19,0,37-6.7,54.1-20.2s28.2-29.7,33.2-48.5c5.1-19,2.7-35.2-7.2-48.7 s-24.3-20.2-43.3-20.2c-18.9,0-36.9,6.7-53.9,20.2c-17.1,13.5-28.2,29.7-33.3,48.7c-5.1,18.9-2.7,35,7.2,48.5 C2577.1,405.9,2591.5,412.6,2610.3,412.6z"></path> <path class="st0" d="M2864.2,257.5c1.8,0.4,2.2,1.6,1.3,3.4l-6.1,13.1c-0.9,1.8-2.2,2.5-3.8,2.2c-2.3-0.4-4.8-0.6-7.3-0.6 c-13.9,0-27.1,4.9-39.5,14.8c-12.5,9.8-20.6,21.7-24.3,35.6L2757,428.7c-0.5,1.9-1.6,2.8-3.4,2.8h-13.5c-1.9,0-2.6-0.9-2.1-2.8 l45.7-170.4c0.5-1.9,1.7-2.8,3.6-2.8h13.5c1.7,0,2.4,0.9,1.9,2.8l-5.4,20.2c17.6-14.6,36.4-21.8,56.2-21.8 C2857,256.7,2860.7,257,2864.2,257.5z"></path> <path class="st0" d="M2930.5,209.8c-3.4,2.7-7,4-10.8,4c-3.9,0-6.8-1.3-8.6-4c-2-2.7-2.5-5.9-1.4-9.7c1-3.8,3.2-7,6.6-9.7 c3.3-2.7,6.9-4,10.8-4c3.8,0,6.6,1.4,8.6,4c2,2.7,2.5,5.9,1.4,9.7C2936.2,203.9,2933.9,207.1,2930.5,209.8z M2854.5,431.6 c-1.8,0-2.4-0.9-1.9-2.8l45.5-169.6c0.5-1.9,1.6-2.8,3.4-2.8h13.5c1.9,0,2.6,0.9,2.1,2.8l-45.5,169.6c-0.5,1.9-1.7,2.8-3.6,2.8 H2854.5z"></path> <path class="st0" d="M2937.1,402.9c-12.5-19.1-14.1-41.7-4.7-67.7c7.3-20.4,20.2-38,38.7-53c18.4-14.8,38-23.5,58.9-26.1 c21.7-2.7,40,1.6,54.8,12.7c1.3,1.1,1.2,2.4-0.3,4l-10.7,11.1c-1.3,1.5-2.7,1.8-4.1,0.8c-9.5-7.1-21.2-10.6-35-10.3 c-18.2,0.4-35.5,7.1-52.1,20c-16.5,12.9-27.6,28.4-33.1,46.5c-5.9,19.5-3.9,36.3,5.9,50.3c9.9,14,24.5,21,43.9,21 c13.2,0,26.3-3.4,39.2-10.3c1.7-0.9,2.9-0.7,3.6,0.8l4.5,11.1c0.8,1.6,0.1,3-1.9,4c-16.7,9-33.6,13.5-50.5,13.5 C2968.4,431.6,2949.3,422,2937.1,402.9z"></path> </g> <linearGradient id="SVGID_8_" gradientUnits="userSpaceOnUse" x1="822.6446" y1="357.8524" x2="2367.2336" y2="129.6745" gradientTransform="matrix(1 0 0.2679 -1 -249.7972 628)"> <stop offset="0" style="stop-color:#EB7125"></stop> <stop offset="1" style="stop-color:#E0282A"></stop> </linearGradient> <path class="st8" d="M1209.5,329.5c-0.9,3.5-2,7.3-3.1,11.5l-1.5,5.7l-1.5,5.5c-2.6,9-4.4,15.8-5.6,20.2 c-4.6,16.7-8.4,30.7-11.4,41.9l-4,14.4c-0.5,1.8,0.2,2.6,1.9,2.6h29.1c1.7,0,2.9-0.9,3.3-2.6l3.6-14.4c3-11.2,6.7-25.1,11-41.9 c1.2-4.4,3-11.2,5.4-20.2l1.3-5.5l1.5-5.7c1.1-4.2,2.1-8,3.1-11.5l1.6-5.9c0.7-2.7,1.2-5.3,1.5-7.9c0.9-5.3,1.1-10.4,0.7-15.4 c-0.8-10.2-3.9-19.3-9.5-27.1c-5.3-7.8-12.8-13.4-22-17.4c-7.7-3.3-15.3-4-16.1-4c-0.7-0.1-7.1-0.5-13.1-0.2 c-10,0.5-20,3.4-29.8,7.9c-3.4,1.5-6.9,3.4-10.6,5.7l3.7-13.7c0.5-1.8-0.2-2.6-1.9-2.6h-29.5c-1.8,0-2.9,0.9-3.3,2.6L1066.6,429 c-0.5,1.8,0.2,2.6,1.9,2.6h29.5c1.7,0,2.9-0.9,3.3-2.6l27.5-102.5c0,0,0.7-2.4,0.9-3c7.7-22.5,29.1-40.8,51.7-40.8 c18.2,0,30.3,11.9,31.2,28.3l0,0l0,0c0.2,4-0.4,8.1-1.5,12.5"></path> <linearGradient id="SVGID_9_" gradientUnits="userSpaceOnUse" x1="842.0413" y1="489.1529" x2="2386.6301" y2="260.975" gradientTransform="matrix(1 0 0.2679 -1 -249.7972 628)"> <stop offset="0" style="stop-color:#EB7125"></stop> <stop offset="1" style="stop-color:#E0282A"></stop> </linearGradient> <path class="st9" d="M2117.7,329.5c-0.9,3.5-2,7.3-3.1,11.5l-1.5,5.7l-1.5,5.5c-2.6,9-4.4,15.8-5.6,20.2 c-4.6,16.7-8.4,30.7-11.4,41.9l-4,14.4c-0.5,1.8,0.2,2.6,1.9,2.6h29.1c1.7,0,2.9-0.9,3.3-2.6l3.6-14.4c3-11.2,6.7-25.1,11-41.9 c1.2-4.4,3-11.2,5.4-20.2l1.3-5.5l1.5-5.7c1.1-4.2,2.1-8,3.1-11.5l1.6-5.9c0.7-2.7,1.2-5.3,1.5-7.9c0.9-5.3,1.1-10.4,0.7-15.4 c-0.8-10.2-3.9-19.3-9.5-27.1c-5.3-7.8-12.8-13.4-22-17.4c-7.7-3.3-15.3-4-16.1-4c-0.7-0.1-7.1-0.5-13.1-0.2 c-10,0.5-20,3.4-29.8,7.9c-3.4,1.5-6.9,3.4-10.6,5.7l3.7-13.7c0.5-1.8-0.2-2.6-1.9-2.6h-29.5c-1.8,0-2.9,0.9-3.3,2.6L1974.8,429 c-0.5,1.8,0.2,2.6,1.9,2.6h29.5c1.7,0,2.9-0.9,3.3-2.6l27.5-102.5c0,0,0.7-2.4,0.9-3c7.7-22.5,29.1-40.8,51.7-40.8 c18.2,0,30.3,11.9,31.2,28.3l0,0l0,0c0.2,4-0.4,8.1-1.5,12.5"></path> </svg> 